<svg width="21" height="22" viewBox="0 0 18 19" fill="none" xmlns="http://www.w3.org/2000/svg">
<path d="M16.2825 16.0629L13.5 13.1496C14.5801 11.7281 15.1031 9.92376 14.9616 8.10768C14.8201 6.2916 14.0247 4.60177 12.7391 3.38566C11.4535 2.16955 9.77534 1.5196 8.04968 1.56944C6.32402 1.61928 4.68203 2.36514 3.46135 3.65364C2.24066 4.94214 1.53406 6.67535 1.48684 8.49688C1.43962 10.3184 2.05537 12.0898 3.20747 13.4469C4.35958 14.8039 5.96047 15.6434 7.68096 15.7928C9.40146 15.9422 11.1108 15.3901 12.4575 14.25L15.2175 17.1633C15.2872 17.2375 15.3702 17.2964 15.4616 17.3366C15.553 17.3768 15.651 17.3975 15.75 17.3975C15.849 17.3975 15.947 17.3768 16.0384 17.3366C16.1298 17.2964 16.2128 17.2375 16.2825 17.1633C16.4177 17.0157 16.4932 16.8184 16.4932 16.6131C16.4932 16.4078 16.4177 16.2105 16.2825 16.0629V16.0629ZM8.24999 14.25C7.21164 14.25 6.1966 13.925 5.33325 13.316C4.46989 12.7071 3.79698 11.8416 3.39962 10.829C3.00226 9.81642 2.89829 8.70217 3.10087 7.62719C3.30344 6.55222 3.80345 5.56478 4.53768 4.78977C5.2719 4.01475 6.20737 3.48696 7.22577 3.27313C8.24417 3.05931 9.29977 3.16905 10.2591 3.58849C11.2184 4.00792 12.0383 4.71821 12.6152 5.62953C13.1921 6.54086 13.5 7.61228 13.5 8.70832C13.5 10.1781 12.9469 11.5876 11.9623 12.6269C10.9777 13.6661 9.64238 14.25 8.24999 14.25V14.25Z" fill="white"/>
</svg>
